<svg width="17" height="17" viewBox="0 0 17 17" fill="none" xmlns="http://www.w3.org/2000/svg">
<path fill-rule="evenodd" clip-rule="evenodd" d="M9.469 1.93403C9.469 1.16338 8.84479 0.538635 8.07479 0.538635C7.30479 0.538635 6.68058 1.16338 6.68058 1.93403V7.18855H1.42354C0.653538 7.18855 0.0293283 7.81329 0.0293283 8.58395C0.0293283 9.35461 0.653538 9.97935 1.42354 9.97935H6.68058V15.2339C6.68058 16.0046 7.30479 16.6293 8.07479 16.6293C8.84479 16.6293 9.469 16.0046 9.469 15.2339V9.97935H14.7258C15.4958 9.97935 16.12 9.35461 16.12 8.58395C16.12 7.81329 15.4958 7.18855 14.7258 7.18855H9.469V1.93403Z" fill="white"/>
</svg>
