<svg width="17" height="21" viewBox="0 0 17 21" fill="none" xmlns="http://www.w3.org/2000/svg">
<path fill-rule="evenodd" clip-rule="evenodd" d="M4.20892 0.277995C5.28836 0.0570838 6.619 0 8.22037 0C9.82174 0 11.1524 0.0570838 12.2318 0.277995C13.3248 0.501682 14.2256 0.906083 14.9024 1.64749C15.5712 2.38015 15.9433 3.35742 16.1566 4.56915C16.3695 5.77872 16.4364 7.29736 16.4364 9.179C16.4364 9.9052 16.4376 10.587 16.4388 11.2266C16.4442 14.2513 16.448 16.3307 16.3116 17.6869C16.2302 18.4961 16.0899 19.1829 15.7814 19.6762C15.6155 19.9415 15.3951 20.1613 15.109 20.3077C14.828 20.4515 14.5313 20.5 14.2474 20.5C13.5986 20.5 12.9695 20.1431 12.4617 19.7903C11.966 19.4459 11.4442 18.9999 10.9507 18.5782C10.9116 18.5448 10.8727 18.5115 10.834 18.4784C10.289 18.0133 9.77724 17.5839 9.29694 17.2686C8.79874 16.9415 8.44853 16.816 8.22037 16.816C7.99221 16.816 7.642 16.9415 7.1438 17.2686C6.6635 17.5839 6.1517 18.0133 5.60679 18.4784C5.56805 18.5115 5.52911 18.5448 5.48999 18.5782C4.99653 18.9999 4.47473 19.4459 3.97902 19.7903C3.47123 20.1431 2.84215 20.5 2.19337 20.5C1.90939 20.5 1.61272 20.4515 1.33172 20.3077C1.0456 20.1613 0.825251 19.9415 0.659334 19.6762C0.350815 19.1829 0.210502 18.4961 0.129134 17.6869C-0.00724256 16.3307 -0.0034843 14.2513 0.0019824 11.2266C0.00313831 10.587 0.00437064 9.9052 0.00437064 9.179C0.00437064 7.29736 0.0712076 5.77872 0.284117 4.56915C0.497407 3.35742 0.869524 2.38015 1.53832 1.64749C2.2151 0.906083 3.11591 0.501682 4.20892 0.277995ZM1.76141 4.82919C1.57241 5.90291 1.50437 7.31214 1.50437 9.179C1.50437 9.92288 1.5032 10.6158 1.5021 11.261C1.49697 14.2867 1.49361 16.264 1.62161 17.5368C1.70049 18.3213 1.82018 18.7035 1.93109 18.8809C1.9749 18.9509 2.00413 18.9668 2.01491 18.9723C2.03081 18.9805 2.07835 19 2.19337 19C2.3421 19 2.63676 18.8964 3.1231 18.5585C3.55425 18.2589 4.02065 17.8605 4.53271 17.4232C4.56593 17.3948 4.59934 17.3662 4.63295 17.3376C5.16704 16.8817 5.74874 16.3901 6.32057 16.0147C6.87449 15.651 7.53503 15.316 8.22037 15.316C8.90571 15.316 9.56625 15.651 10.1202 16.0147C10.692 16.3901 11.2737 16.8817 11.8078 17.3376C11.8414 17.3662 11.8748 17.3948 11.908 17.4231C12.4201 17.8605 12.8865 18.2589 13.3176 18.5585C13.804 18.8964 14.0986 19 14.2474 19C14.3624 19 14.4099 18.9805 14.4258 18.9723C14.4366 18.9668 14.4658 18.9509 14.5096 18.8809C14.6206 18.7035 14.7403 18.3213 14.8191 17.5368C14.9471 16.264 14.9438 14.2867 14.9386 11.2609C14.9375 10.6157 14.9364 9.92288 14.9364 9.179C14.9364 7.31214 14.8683 5.90291 14.6793 4.82919C14.4907 3.75764 14.1939 3.09622 13.7946 2.65876C13.4032 2.23004 12.8367 1.93288 11.9311 1.74754C11.0119 1.55942 9.8125 1.5 8.22037 1.5C6.62824 1.5 5.42888 1.55942 4.50967 1.74754C3.60402 1.93288 3.03752 2.23004 2.64617 2.65876C2.24684 3.09622 1.95002 3.75764 1.76141 4.82919Z" fill="#130F26" fill-opacity="0.5"/>
</svg>
