<svg width="166" height="122" viewBox="0 0 166 122" fill="none" xmlns="http://www.w3.org/2000/svg">
<path fill-rule="evenodd" clip-rule="evenodd" d="M123.744 21.646C124.99 21.646 126 22.6502 126 23.8888C126 35.592 121.862 46.9092 114.358 55.3306C106.838 63.7694 96.5124 68.6335 85.6118 68.6335C74.7112 68.6335 64.386 63.7694 56.866 55.3306C49.3615 46.9092 45.2236 35.592 45.2236 23.8888C45.2236 22.6502 46.2338 21.646 47.48 21.646C48.7261 21.646 49.7363 22.6502 49.7363 23.8888C49.7363 34.5663 53.5161 44.8063 60.244 52.3563C66.9721 59.9065 76.0972 64.1479 85.6118 64.1479C95.1264 64.1479 104.252 59.9065 110.98 52.3563C117.708 44.8063 121.487 34.5663 121.487 23.8888C121.487 22.6502 122.498 21.646 123.744 21.646Z" fill="url(#paint0_linear_0_1)"/>
<path fill-rule="evenodd" clip-rule="evenodd" d="M42.6517 76.0623C41.7395 75.2082 41.6923 73.7764 42.5464 72.8641L65.7105 48.1221C66.5646 47.2099 67.9964 47.1627 68.9086 48.0167C69.8209 48.8708 69.868 50.3026 69.014 51.2149L45.8499 75.9569C44.9958 76.8691 43.564 76.9163 42.6517 76.0623Z" fill="url(#paint1_linear_0_1)"/>
<path fill-rule="evenodd" clip-rule="evenodd" d="M85.8758 52.5112C99.1316 52.5112 109.878 41.7652 109.878 28.5093C109.878 15.2534 99.1316 4.5074 85.8758 4.5074C72.6199 4.5074 61.8739 15.2534 61.8739 28.5093C61.8739 41.7652 72.6199 52.5112 85.8758 52.5112ZM85.8758 57.0186C101.621 57.0186 114.385 44.2546 114.385 28.5093C114.385 12.764 101.621 0 85.8758 0C70.1305 0 57.3665 12.764 57.3665 28.5093C57.3665 44.2546 70.1305 57.0186 85.8758 57.0186Z" fill="url(#paint2_linear_0_1)"/>
<path d="M5.96985 117.24C3.67375 117.24 1.59728 116.261 0.379355 114.484L2.07647 112.428C3.03484 113.766 4.4724 114.484 5.98981 114.484C7.20774 114.484 8.10622 113.845 8.10622 112.907C8.10622 112.308 7.66696 111.789 6.76849 111.37C6.56883 111.27 6.08965 111.09 5.31097 110.791C4.55226 110.491 3.97324 110.212 3.57392 109.992C2.01657 109.093 1.2379 107.876 1.2379 106.318C1.2379 105.08 1.69711 104.062 2.63552 103.243C3.57392 102.425 4.79185 102.005 6.26934 102.005C8.18608 102.005 9.80333 102.664 11.1211 104.002L9.54377 106.158C8.72516 105.28 7.4074 104.781 6.30927 104.781C5.13127 104.781 4.4125 105.34 4.4125 106.198C4.4125 106.777 4.81182 107.257 5.61046 107.656L7.06798 108.295C7.88659 108.634 8.48557 108.894 8.86493 109.073C10.5421 109.892 11.3806 111.11 11.3806 112.747C11.3806 114.065 10.8815 115.143 9.8832 115.982C8.88489 116.82 7.5871 117.24 5.96985 117.24ZM19.577 105.839C21.1144 105.839 22.3922 106.398 23.4105 107.496C24.4288 108.594 24.9279 109.952 24.9279 111.549C24.9279 113.147 24.4088 114.504 23.3905 115.602C22.3723 116.701 21.0944 117.26 19.5571 117.26C18.2193 117.26 17.0813 116.76 16.1429 115.742V121.472H13.3277V106.119H16.1229V107.456C17.0613 106.378 18.1994 105.839 19.577 105.839ZM19.0779 114.684C19.9763 114.684 20.6951 114.384 21.2542 113.785C21.8132 113.186 22.0927 112.448 22.0927 111.569C22.0927 110.691 21.8132 109.952 21.2542 109.353C20.6951 108.754 19.9763 108.455 19.0779 108.455C18.1994 108.455 17.4806 108.754 16.9215 109.353C16.3625 109.952 16.083 110.691 16.083 111.569C16.083 112.448 16.3625 113.186 16.9215 113.785C17.4806 114.384 18.1994 114.684 19.0779 114.684ZM26.3388 111.549C26.3388 109.952 26.8779 108.594 27.976 107.496C29.0742 106.378 30.4718 105.819 32.1689 105.819C33.866 105.819 35.2636 106.378 36.3618 107.496C37.4599 108.594 37.999 109.952 37.999 111.549C37.999 113.167 37.4599 114.524 36.3618 115.622C35.2636 116.72 33.866 117.28 32.1689 117.28C30.4718 117.28 29.0742 116.72 27.976 115.622C26.8779 114.524 26.3388 113.167 26.3388 111.549ZM30.0126 113.766C30.5916 114.364 31.3104 114.664 32.1689 114.664C33.0274 114.664 33.7262 114.364 34.3053 113.766C34.8843 113.147 35.1838 112.408 35.1838 111.549C35.1838 110.691 34.8843 109.952 34.3053 109.353C33.7262 108.754 33.0274 108.455 32.1689 108.455C31.3104 108.455 30.5916 108.754 30.0126 109.353C29.4335 109.952 29.154 110.691 29.154 111.549C29.154 112.408 29.4335 113.147 30.0126 113.766ZM46.8341 114.145L47.6727 116.361C46.7742 116.96 45.716 117.26 44.4582 117.26C41.9624 117.26 40.6646 115.782 40.6646 112.967V108.474H38.8876V106.119H40.6846V102.265H43.4798V106.119H47.0737V108.474H43.4798V112.787C43.4798 114.065 43.9989 114.704 45.0172 114.704C45.5563 114.704 46.1752 114.524 46.8341 114.145ZM56.0372 114.145L56.8758 116.361C55.9773 116.96 54.9191 117.26 53.6613 117.26C51.1655 117.26 49.8677 115.782 49.8677 112.967V108.474H48.0907V106.119H49.8877V102.265H52.6829V106.119H56.2768V108.474H52.6829V112.787C52.6829 114.065 53.202 114.704 54.2203 114.704C54.7594 114.704 55.3783 114.524 56.0372 114.145ZM68.6183 111.31C68.6183 111.689 68.5784 112.108 68.5185 112.548H60.3524C60.7517 114.085 61.8099 114.864 63.527 114.864C64.705 114.864 66.1026 114.404 67.041 113.766L68.1591 115.742C66.7814 116.74 65.2041 117.24 63.4072 117.24C61.4904 117.24 60.0329 116.681 59.0147 115.582C57.9964 114.484 57.4972 113.127 57.4972 111.549C57.4972 109.892 58.0163 108.534 59.0745 107.456C60.1328 106.378 61.4904 105.839 63.1676 105.839C64.7449 105.839 66.0627 106.338 67.0809 107.316C68.0992 108.295 68.6183 109.613 68.6183 111.31ZM63.1676 108.175C61.75 108.175 60.6918 109.034 60.3524 110.451H65.883C65.6234 109.034 64.6051 108.175 63.1676 108.175ZM78.6807 107.376V101.826H81.496V117H78.7406V115.662C77.8621 116.72 76.744 117.26 75.3664 117.26C73.829 117.26 72.5312 116.72 71.5129 115.642C70.4947 114.544 69.9755 113.186 69.9755 111.549C69.9755 109.932 70.4947 108.574 71.5129 107.476C72.5512 106.378 73.829 105.839 75.3664 105.839C76.6841 105.839 77.7823 106.358 78.6807 107.376ZM78.8205 111.549C78.8205 110.671 78.541 109.932 77.9819 109.333C77.4229 108.714 76.7041 108.415 75.8056 108.415C74.9072 108.415 74.1884 108.714 73.6094 109.333C73.0503 109.932 72.7708 110.671 72.7708 111.549C72.7708 112.448 73.0503 113.186 73.6094 113.805C74.1884 114.404 74.9072 114.704 75.8056 114.704C76.7041 114.704 77.4229 114.404 77.9819 113.805C78.541 113.186 78.8205 112.448 78.8205 111.549ZM89.1799 111.609V102.245H92.1549V111.41C92.1549 113.386 93.2131 114.384 94.9501 114.384C96.6273 114.384 97.7054 113.326 97.7054 111.41V102.245H100.7V111.609C100.7 113.466 100.161 114.864 99.0631 115.822C97.9849 116.78 96.6073 117.26 94.9501 117.26C93.2929 117.26 91.9153 116.78 90.8171 115.822C89.719 114.864 89.1799 113.466 89.1799 111.609ZM106.762 117H103.807V102.245H113.651V105.04H106.762V108.355H112.812V111.13H106.762V117ZM125.841 117H115.838V102.245H125.841V105H118.812V108.175H125.321V110.93H118.812V114.245H125.841V117ZM139.831 117H136.377L133.262 111.629H131.505V117H128.55V102.245H134.201C135.838 102.245 137.096 102.704 137.954 103.603C138.813 104.501 139.252 105.599 139.252 106.917C139.252 108.834 138.254 110.531 136.257 111.25L139.831 117ZM134.181 104.98H131.505V108.974H133.921C135.459 108.974 136.217 108.095 136.217 106.957C136.217 105.839 135.459 104.98 134.181 104.98ZM146.298 117.24C144.002 117.24 141.925 116.261 140.707 114.484L142.404 112.428C143.363 113.766 144.8 114.484 146.318 114.484C147.536 114.484 148.434 113.845 148.434 112.907C148.434 112.308 147.995 111.789 147.096 111.37C146.897 111.27 146.417 111.09 145.639 110.791C144.88 110.491 144.301 110.212 143.902 109.992C142.344 109.093 141.566 107.876 141.566 106.318C141.566 105.08 142.025 104.062 142.963 103.243C143.902 102.425 145.12 102.005 146.597 102.005C148.514 102.005 150.131 102.664 151.449 104.002L149.872 106.158C149.053 105.28 147.735 104.781 146.637 104.781C145.459 104.781 144.74 105.34 144.74 106.198C144.74 106.777 145.14 107.257 145.938 107.656L147.396 108.295C148.214 108.634 148.813 108.894 149.193 109.073C150.87 109.892 151.708 111.11 151.708 112.747C151.708 114.065 151.209 115.143 150.211 115.982C149.213 116.82 147.915 117.24 146.298 117.24ZM165.724 117H162.61L161.511 113.805H156.36L155.222 117H152.127L157.758 102.245H160.174L165.724 117ZM160.673 111.17L158.956 106.258L157.199 111.17H160.673Z" fill="#F1F1F1"/>
<defs>
<linearGradient id="paint0_linear_0_1" x1="10.2632" y1="64.1479" x2="143.472" y2="64.1479" gradientUnits="userSpaceOnUse">
<stop offset="0.202809" stop-color="#3F37C9"/>
<stop offset="0.905698" stop-color="#F72585" stop-opacity="0.74"/>
</linearGradient>
<linearGradient id="paint1_linear_0_1" x1="57.4319" y1="63.5859" x2="57.5971" y2="63.7405" gradientUnits="userSpaceOnUse">
<stop stop-color="#3A0CA3"/>
<stop offset="0.270833" stop-color="#B5179E"/>
<stop offset="0.625" stop-color="#4361EE"/>
<stop offset="0.96875" stop-color="#480CA8"/>
</linearGradient>
<linearGradient id="paint2_linear_0_1" x1="134.222" y1="8.67203" x2="36.8788" y2="6.50402" gradientUnits="userSpaceOnUse">
<stop stop-color="#3A0CA3"/>
<stop offset="0.270833" stop-color="#F72585" stop-opacity="0.9"/>
<stop offset="0.625" stop-color="#4361EE"/>
<stop offset="0.96875" stop-color="#480CA8"/>
</linearGradient>
</defs>
</svg>
