<svg width="17" height="21" viewBox="0 0 17 21" fill="none" xmlns="http://www.w3.org/2000/svg">
<path fill-rule="evenodd" clip-rule="evenodd" d="M2.69562 2.62974C3.85707 1.13235 5.65689 0 8.13158 0C10.6058 0 12.4056 1.13238 13.5672 2.6297C14.7104 4.10345 15.2425 5.93451 15.2425 7.41952C15.2425 7.84576 15.2296 8.1622 15.2198 8.40233C15.2177 8.4517 15.2158 8.49784 15.2142 8.54105C15.2046 8.79932 15.2065 8.9234 15.2264 9.04633C15.2716 9.3259 15.4146 9.67033 15.986 10.9296C15.9917 10.9422 15.9971 10.955 16.0021 10.9679C16.4149 12.0303 16.3225 13.0077 15.8316 13.8359C15.363 14.6263 14.5755 15.2082 13.7242 15.6329C12.0219 16.4821 9.77158 16.8476 8.13158 16.8476C6.49113 16.8476 4.24053 16.4821 2.53821 15.6329C1.68694 15.2082 0.899435 14.6262 0.431016 13.8358C-0.059872 13.0075 -0.151972 12.0301 0.261137 10.9677C0.266131 10.9549 0.271479 10.9422 0.277174 10.9296C0.848585 9.67033 0.991607 9.3259 1.03678 9.04633C1.05664 8.9234 1.0586 8.79931 1.04893 8.54105C1.04732 8.49784 1.04543 8.4517 1.04341 8.40233C1.03358 8.16221 1.02063 7.84577 1.02063 7.41952C1.02063 5.93459 1.55248 4.10352 2.69562 2.62974ZM3.88087 3.54907C2.95211 4.74648 2.52063 6.25017 2.52063 7.41952C2.52063 7.81262 2.53221 8.0966 2.54196 8.33566C2.54406 8.38731 2.54609 8.43686 2.54789 8.48496C2.55783 8.7508 2.56307 9.00398 2.51757 9.28557C2.43307 9.80863 2.17615 10.3748 1.66217 11.5075L1.65215 11.5296C1.40327 12.1823 1.4831 12.6689 1.72143 13.0711C1.98444 13.5149 2.4886 13.9319 3.20781 14.2907C4.64644 15.0083 6.65203 15.3476 8.13158 15.3476C9.61062 15.3476 11.616 15.0084 13.0546 14.2907C13.7739 13.9319 14.2781 13.5149 14.5412 13.071C14.7797 12.6688 14.8596 12.1821 14.611 11.5295L14.601 11.5074C14.087 10.3748 13.8301 9.80863 13.7456 9.28557C13.7001 9.00398 13.7053 8.7508 13.7153 8.48496C13.7171 8.43686 13.7191 8.38731 13.7212 8.33567C13.731 8.09661 13.7425 7.81263 13.7425 7.41952C13.7425 6.25025 13.3109 4.74655 12.382 3.54911C11.4713 2.37524 10.0907 1.5 8.13158 1.5C6.17198 1.5 4.79133 2.37527 3.88087 3.54907Z" fill="#130F26" fill-opacity="0.5"/>
<path fill-rule="evenodd" clip-rule="evenodd" d="M5.32191 18.1887C5.63083 17.9128 6.10495 17.9395 6.38089 18.2484C7.38646 19.3742 8.88365 19.3638 9.88275 18.2478C10.159 17.9392 10.6332 17.913 10.9418 18.1893C11.2504 18.4656 11.2766 18.9397 11.0003 19.2483C9.41086 21.0237 6.86996 21.0476 5.26219 19.2477C4.98625 18.9388 5.01299 18.4646 5.32191 18.1887Z" fill="#130F26" fill-opacity="0.5"/>
</svg>
